<?xml version="1.0" encoding="utf-8"?>
<!-- Generator: Adobe Illustrator 20.0.0, SVG Export Plug-In . SVG Version: 6.00 Build 0)  -->
<svg version="1.1" id="Laag_1" xmlns="http://www.w3.org/2000/svg" xmlns:xlink="http://www.w3.org/1999/xlink" x="0px" y="0px"
	 viewBox="0 0 984 1496" style="enable-background:new 0 0 984 1496;" xml:space="preserve">
<style type="text/css">
	.st0{fill:#FFFFFF;}
	.st1{fill:#FE0000;}
	.st2{fill:#3D5C99;}
</style>
<g id="_x23_ffffffff">
	<path class="st0" d="M302.7,575.7c9.5,36.5,18.9,72.9,28.3,109.4c-19.2,0-38.4,0-57.6,0C283.2,648.6,293,612.1,302.7,575.7z"/>
	<path class="st0" d="M753.7,685c9.8-36.4,19.5-72.9,29.3-109.3c9.5,36.4,18.9,72.8,28.3,109.3C792.2,685,772.9,685,753.7,685z"/>
	<path class="st0" d="M228.7,877c5.1,0.3,10.1,0.9,15.2,0.2c6.5-0.6,14.1-1.2,19.3,3.5c6.2,6.7,6.5,16.6,6.3,25.2
		c-0.6,8.2-2.8,17.8-10.5,22.2c3.8,11.4,8.3,22.6,11.8,34.1c1.4,4,2.6,8.7,6.4,11.1c1.8-0.2,3.6-1,4.4-2.7c1.7-3.6,1.4-7.8,1.6-11.7
		c0-17,0-34,0-51c-0.2-7,0.6-14.2-1-21.1c-0.5-2.7-2.9-4.3-5.4-4.7c0-1.8,0-3.6,0-5.4c12.4,1,24.8,0,37.2,0
		c0.2,8.9,0.3,17.9,0.5,26.8c-0.7,0-2,0-2.6,0c-0.7-5.3-1.4-11.1-4.8-15.5c-2.4-3.4-6.9-4.4-10.8-4.1c-2.4,0.3-2.5,3.1-2.5,4.9
		c0.2,11.7,0,23.5,0.1,35.2c2.3-0.1,4.8-0.4,6.2-2.5c2.8-4.3,2.8-9.7,3.4-14.6c0.6,0,2,0,2.6,0c-0.1,13.5-0.2,27.1,0,40.7
		c-0.7,0-2.1,0-2.8,0c-0.5-4.7-0.3-9.8-2.8-14c-1.4-2.3-4.2-2.7-6.6-2.9c0,10-0.1,20,0,30.1c0.2,3.3,0,6.8,1.4,9.9
		c1,2,3.5,2,5.3,2.6c0,1.8,0,3.6,0,5.5c-6.1,0.1-12.2-0.9-18.3-0.4c-6.2,0.5-12.4-0.2-18.6,0.2c-2.7-9.3-5.8-18.5-8.6-27.7
		c-1.6-4.9-3-10-5.4-14.6c-0.7-1.6-2.3-2.5-3.7-3.4c-0.2,8.6-0.1,17.2-0.1,25.8c0.2,3.9,0,8.1,1.6,11.8c0.8,2,3.1,2.2,4.9,2.8
		c0,1.8,0,3.6,0,5.5c-7.8-0.5-15.6-0.9-23.4,0c0-1.8,0-3.7,0-5.5c1.7-0.7,4.1-0.8,4.9-2.8c1.5-3.7,1.2-7.8,1.4-11.8
		c0.1-21.3,0-42.6,0-64c-0.2-3.5,0-7.2-1.8-10.3c-0.9-1.7-2.9-2-4.6-2.5C228.7,880.4,228.7,878.7,228.7,877 M246.5,884.5
		c-1,1.3-0.7,3-0.8,4.5c0,12.5,0,25,0,37.5c3.1,0,6.8-0.2,8.8-3c3.3-4.8,3.4-10.9,3.7-16.5c0-6.4,0-13.3-3-19.1
		C253.6,884.7,249.7,883,246.5,884.5z"/>
	<path class="st0" d="M640.7,906.7c7-6.1,18.6-6.1,25,0.8c0.3-1.6,0.6-3.2,1-4.8c0.9,0,1.8,0,2.8,0c0.2,6,0.4,12,0.7,18
		c-0.7,0-2.1,0-2.8,0.1c-0.9-4-2-8.2-5-11.1c-3.1-3.2-8.5-4.3-12.3-1.7c-4.5,3-6.2,8.6-7.3,13.6c-1.4,8.3-1.3,17.1,1.3,25.2
		c1.4,4.2,4.3,8.8,9,9.7c3.8,0.5,7.9-0.8,10.4-3.9c2.9-3.5,3.8-8,4.6-12.3c0.6,0,1.9,0,2.5,0c0,5.8,0,11.5,0,17.3
		c4.9-1.4,6.5-6.5,8-10.9c4.7-14.8,9.3-29.6,14-44.5c1.1,0,2.1,0,3.2,0c5,16.3,9.6,32.7,15,48.9c0.7,3.1,3,5.2,6.1,5.8
		c0,0.8,0,2.3,0,3.1c-7.3-0.3-14.6-0.4-21.9,0c0-0.8,0-2.3,0-3.1c1.8-0.7,5-0.4,5.3-3c0.2-4-1.6-7.8-2.5-11.6c-4.8,0-9.6,0-14.5,0
		c-1,3.5-2.5,6.9-2.4,10.6c0.2,2.8,3.2,3.7,5.5,4.2c0,0.7,0,2.2,0,2.9c-6.2-0.6-12.4,0.2-18.5-0.6c-0.4-1.6-0.8-3.2-1.1-4.9
		c-7,8.3-20.8,8.4-28.2,0.7c-6.3-6.3-8.3-15.7-8-24.4C631,922.1,633.7,912.6,640.7,906.7 M684.5,938.2c4,0,7.9,0,11.9,0
		c-1.9-6.6-3.9-13.1-5.8-19.7C688.5,925.1,686.5,931.6,684.5,938.2z"/>
	<path class="st0" d="M803.5,902.8c6.4-1.5,13.5-0.2,18.7,4c5.2,3.9,8.7,9.8,9.9,16.2c1.8,9.6,1,20.2-4.8,28.4
		c-4.4,6.5-12.4,10.5-20.3,9.6c-7.8-0.6-14.8-5.5-18.5-12.3c-4.7-8.6-5-19.1-2.5-28.4C788.3,911.9,794.9,904.6,803.5,902.8
		 M805.4,906.5c-4.4,1.3-6.7,5.7-7.9,9.8c-2.2,7.7-2.1,15.9-1.2,23.8c0.8,5.2,2,10.9,6,14.7c4.1,4,11.5,2.6,14.6-2
		c4.4-6.3,4.7-14.4,4.7-21.8c-0.4-7.2-0.9-15.1-5.4-21.1C813.8,906.5,809.2,905.4,805.4,906.5z"/>
	<path class="st0" d="M333.9,903c7.4,0.3,14.9,0.2,22.3-0.1c0,0.8,0,2.2,0,3c-1.5,0.5-3.3,0.5-4.5,1.8c-1.6,1.7-1.5,4.2-1.6,6.3
		c0,11.3,0,22.7,0,34.1c0.1,2.5-0.1,5.3,1.5,7.5c1.1,1.3,3.1,1.1,4.6,1.6c0,0.7,0,2.2,0,3c-7.4-0.3-14.9-0.5-22.3,0c0-0.8,0-2.3,0-3
		c1.9-0.5,4.7-0.4,5.3-2.8c1-3.7,0.7-7.5,0.7-11.3c-0.1-10.7,0.2-21.4-0.2-32.1c0.1-3.3-3.1-4.9-5.9-5.1
		C333.9,905.2,333.9,903.8,333.9,903z"/>
	<path class="st0" d="M358.5,906.1c0-1.1,0-2.2,0.1-3.2c7.1,0.2,14.3-0.1,21.4,0.1c7.4,0.1,14.5,4.2,18.2,10.6
		c5.1,8.6,5.5,19.3,3.4,28.8c-1.4,6.4-5,12.9-11.1,15.9c-4.5,2.3-9.7,1.7-14.6,1.5c-5.8-0.4-11.6,0.2-17.4,0.2c0-0.7,0-2.2,0-3
		c3-0.1,6-2,5.8-5.2c0.5-12,0-23.9,0.2-35.9c-0.1-2.6,0.3-5.3-1-7.7C362.5,906.6,360.2,906.6,358.5,906.1 M374.8,907.1
		c-0.5,11.3-0.1,22.6-0.2,33.9c0.1,4.1-0.4,8.4,1.2,12.2c2.6,4.6,10,2.9,12.3-1.2c3.6-6.3,3.5-13.9,3.5-21
		c-0.2-6.9-0.5-14.3-4.6-20.1C384.2,907.2,379.1,906.7,374.8,907.1z"/>
	<path class="st0" d="M406.7,902.9c11.7,0.6,23.4-0.1,35.1,0c0.2,5.1,0.4,10.3,0.5,15.5c-0.7-0.1-2-0.2-2.6-0.3
		c-1-3-1.2-6.7-3.9-8.8c-3.6-2.7-8.3-2.5-12.5-2c-0.9,7.2-0.2,14.4-0.4,21.7c2.3-0.4,5-0.5,6.8-2.4c1.8-2,1.8-4.8,2.2-7.2
		c0.9,0,1.7,0,2.6,0c-0.2,7.6-0.1,15.2,0,22.8c-0.6-0.1-1.9-0.2-2.5-0.3c-0.9-2.8-0.9-6.3-3.5-8.2c-1.7-0.9-3.7-0.8-5.5-1.1
		c0.2,6.3-0.5,12.8,0.6,19c1.5,4.9,7.8,5,11.9,3.6c5-1.7,5.9-7.5,6.9-11.9c0.6,0,2,0,2.6,0c-0.3,5.5-0.6,11.1,0,16.6
		c-12.7-0.1-25.4-0.6-38.1,0c0-0.8,0-2.2,0-3c1.8-0.5,4.2-0.5,5.1-2.5c1.1-2,0.9-4.4,1-6.6c0-11,0-22,0-33c-0.2-2.5,0.1-5.2-1.5-7.3
		c-1.1-1.4-3-1.3-4.5-1.8C406.7,905.1,406.7,903.7,406.7,902.9z"/>
	<path class="st0" d="M447,902.9c4.6,0.6,9.2,0.4,13.7,0c8.5,13.1,17,26.2,25.6,39.2c-0.1-9.4,0.2-18.8-0.1-28.2
		c0-3.8-2.1-7.5-6-8.1c0-0.7,0-2.2,0-3c5.1,0.5,10.2,0.5,15.2,0c0,0.8,0,2.2,0,3c-1.5,0.7-3.3,0.9-4.2,2.3c-1.5,2.3-1.3,5.2-1.5,7.8
		c-0.1,15.1,0,30.2,0,45.3c-0.8,0-2.4,0-3.3-0.1c-9.8-14.8-19.7-29.7-29.6-44.5c0,10.4-0.1,20.8,0.1,31.2c-0.1,4,1.8,8.5,6.1,9.2
		c0,0.7,0,2.2,0.1,2.9c-5.1-0.4-10.2-0.4-15.4,0c0-0.8,0-2.3,0-3c3-0.6,5.6-2.8,5.5-6.1c0.5-11,0-22,0.2-33c-0.1-3,0.6-6.4-1.5-8.9
		c-1-1.8-3.1-2.5-4.9-3.2C447,905.2,447,903.7,447,902.9z"/>
	<path class="st0" d="M498,902.9c14,0,28,0,42,0c0.1,5.5,0.3,11.1,0.4,16.6c-0.6-0.1-2-0.2-2.6-0.3c-0.9-3.2-1.4-6.7-3.9-9.1
		c-2.4-2.6-6-3-9.4-2.8c-0.7,11.9-0.1,23.8-0.3,35.7c0.2,3.8-0.5,8,1,11.6c1.1,2,3.6,2,5.5,2.4c0,0.8,0,2.2,0,3
		c-7.7-0.4-15.5-0.4-23.2,0c0-0.8,0-2.3,0-3c1.9-0.5,4.5-0.1,5.6-2.2c1.1-2.1,0.9-4.6,1-6.9c0-12.3,0-24.7,0-37
		c-0.1-1.2,0-3.2-1.6-3.4c-3-0.5-6.7-0.2-8.9,2.2c-2.3,2.6-2.5,6.3-3.4,9.5c-0.7,0.1-2,0.2-2.7,0.3C497.7,914,497.8,908.5,498,902.9
		z"/>
	<path class="st0" d="M542.4,903c7.4,0.2,14.9,0.2,22.3-0.1c0,0.7,0,2.2,0,3c-3.3,0.2-6.4,2.5-6,6.1c0,13.3-0.3,26.7,0.2,40
		c-0.1,3.3,2.8,5,5.8,5.1c0,0.8,0,2.3,0,3c-7.5-0.4-14.9-0.4-22.4-0.1c0-0.7,0.1-2.2,0.1-3c2-0.5,5-0.6,5.4-3.2
		c1.2-6.2,0.4-12.6,0.6-18.9c-0.2-8.3,0.4-16.6-0.3-24.9c-0.3-3-3.3-3.8-5.8-4.1C542.4,905.2,542.4,903.8,542.4,903z"/>
	<path class="st0" d="M567,902.9c11.8,0.6,23.5,0,35.3,0c0.2,5.1,0.3,10.1,0.4,15.2c-0.6-0.1-1.8-0.3-2.4-0.4
		c-1-3.5-2.3-7.5-5.9-9.2c-3.3-1.5-7.4-2.2-10.8-0.9c-0.1,0.3-0.4,1-0.5,1.4c-0.2,6.8,0,13.7-0.1,20.5c2-0.2,4.4-0.1,6-1.5
		c2.3-2,2.5-5.3,3.2-8.1c0.6,0,1.8,0,2.5,0c-0.2,7.6-0.3,15.2,0,22.8c-0.6,0-1.9,0-2.5,0c-0.5-2.5-0.6-5.4-2.3-7.5
		c-1.7-1.9-4.4-1.8-6.8-2c0.1,6.8-0.5,13.7,0.5,20.5c0.3,2.9,3.7,3,5.9,3.4c0,0.8,0,2.3,0,3c-7.5-0.1-15-0.5-22.5,0c0-0.8,0-2.3,0-3
		c2.5-0.3,5.4-1.2,5.7-4.1c0.8-8.6,0.1-17.3,0.3-26c-0.2-5.8,0.5-11.8-0.6-17.6c-0.6-2.5-3.3-3.2-5.4-3.5
		C567,905.2,567,903.7,567,902.9z"/>
	<path class="st0" d="M603.8,903c7.4,0.3,14.9,0.2,22.3-0.1c0,0.8,0,2.2,0,3c-3.2,0.2-6.3,2.5-6,6c-0.1,13.1-0.2,26.2,0,39.2
		c-0.2,3.5,2.5,6.1,5.9,6c0,0.8,0,2.2,0,3c-7.4-0.3-14.9-0.5-22.3,0c0-0.8,0-2.3,0-3c1.7-0.6,4.2-0.4,5.1-2.3
		c1.3-3.4,0.8-7.2,0.9-10.8c-0.2-11.1,0.2-22.3-0.2-33.4c-0.1-3.2-3.2-4.4-5.9-4.7C603.8,905.2,603.8,903.8,603.8,903z"/>
	<path class="st0" d="M713.2,902.9c14,0,28,0,42,0c0.1,5.5,0.3,11.1,0.4,16.6c-0.6-0.1-2-0.2-2.6-0.3c-0.9-3-1.3-6.3-3.5-8.7
		c-2.4-2.5-6.4-4.1-9.7-2.8c-0.7,9.7-0.1,19.5-0.3,29.2c0.3,5.6-0.6,11.4,0.7,16.9c0.7,2.6,3.7,2.8,5.9,3.2c0,0.8,0,2.3,0,3
		c-7.8-0.4-15.5-0.4-23.3,0c0-0.8,0-2.3,0-3c3.1,0,6.7-1.4,6.5-5.1c0.4-13.3,0-26.7,0.2-40c-0.2-1.4,0.4-3.5-1.1-4.3
		c-3.4-0.8-7.8-0.4-9.8,2.8c-1.8,2.6-2.2,5.9-2.8,9c-0.7,0-2.1,0-2.8,0C712.9,913.9,713.1,908.4,713.2,902.9z"/>
	<path class="st0" d="M757.7,903c7.4,0.3,14.9,0.2,22.3-0.1c0,0.8,0,2.2,0,3c-2.8,0.3-6,1.8-5.9,5.1c-0.4,11.7,0,23.4-0.2,35
		c0.1,3-0.3,6.3,1.2,9.1c0.9,1.8,3.2,1.5,4.9,2c0,0.8,0,2.3,0,3c-7.4-0.3-14.9-0.5-22.3,0c0-0.8,0-2.3,0-3c1.7-0.6,4.2-0.4,5.1-2.3
		c1-2.5,0.9-5.2,0.9-7.7c0-11,0-22,0-33c-0.1-2.1,0.1-4.6-1.4-6.3c-1.2-1.4-3.1-1.3-4.7-1.8C757.7,905.2,757.7,903.7,757.7,903z"/>
	<path class="st0" d="M836.8,902.9c4.1,0.5,8.2,0.4,12.2,0.1c1.5-0.5,2.1,1.1,2.8,2c8,12.4,16.1,24.8,24.2,37.2
		c-0.1-9.4,0.2-18.8-0.1-28.1c0-3.7-2-7.6-6-8.2c0-0.8,0-2.2,0-3c5.1,0.5,10.2,0.5,15.2,0c0,0.8,0,2.2,0,3c-3.5,0.6-5.8,3.6-5.5,7.1
		c-0.4,16.1,0,32.2-0.2,48.3c-0.8,0-2.4,0-3.2,0c-9.9-14.8-19.7-29.7-29.6-44.5c0,10.1-0.1,20.1,0,30.2c-0.2,4.2,1.4,9.4,6.2,10.2
		c0,0.7,0,2.2,0,2.9c-5.1-0.4-10.3-0.4-15.4,0c0-0.8,0-2.3,0-3c3-0.6,5.6-2.7,5.5-6.1c0.5-12.3,0-24.7,0.2-37
		c0.3-3.9-2.8-7.2-6.4-8.1C836.9,905.1,836.9,903.7,836.8,902.9z"/>
</g>
<g id="_x23_fe0000ff">
	<path class="st1" d="M477,44.1c28.1-2.8,56.3-0.1,84.1,4c63.4,9.6,125.5,32.3,177.6,70.2c50.8,36.5,90.8,86.9,117.6,143.2
		c2.8,5.7,5.2,11.5,7.9,17.2c8.7-3.2,17.4-6.2,26-9.4c-6.5,38.3-13.1,76.6-19.6,114.9c-24.8-27.1-49.5-54.2-74.3-81.3
		c7.9-2.8,15.8-5.7,23.8-8.5c-12.8-29.4-29.2-57.3-49.4-82.2c-19.8-24.5-43.4-45.9-69.6-63.3c-42.2-28.2-91.1-45.5-141-53.8
		c-18.9-3-37.9-5.4-57.1-5.6c-34,0-67.6,7.5-99.3,19.2c-32.6,12.2-63.4,29-91.7,49.3c-26.6,19.2-51.1,41.6-72,67
		c-19.8,24.1-36.5,51-47.8,80.1c-8.7,22.4-14.1,46.1-15.3,70.1c-15.5-0.7-31-1.5-46.5-2.2c1.8-39.5,13.2-78.3,31.2-113.4
		c27.7-54,69.7-99.9,118.2-135.9c30.2-22.3,63.1-41,97.9-55C409.5,56.1,442.9,47.2,477,44.1z"/>
	<path class="st1" d="M497.5,291.7c18.6-2.8,38.3,1.2,53.8,12c11.1,7.7,20,19.1,23.5,32.3c3.4,12,2.1,25.2-3.4,36.4
		c-6.2,12.9-17.3,23-30.2,29.1c-19.2,9.1-42.4,9.5-62,1c-14.1-6-26.4-16.9-32.8-30.9c-5.7-12.2-6.4-26.5-1.8-39.2
		C452.6,310.1,474.6,295,497.5,291.7z"/>
	<path class="st1" d="M142.1,477.8c25.9-0.6,51.8-2.9,77.8-3.6c0,7.4,0,14.9,0,22.3c-9.2,0.1-19.2,1.6-26.1,8.3
		c-6.8,6-9.9,14.9-11.2,23.6c-1.3,7.8-2.1,15.6-2.2,23.5c1.3,22.3,0.6,44.7,0.8,67.1c0,87.6,0,175.3,0,262.9
		c0.1,21.2-0.9,42.5-4.8,63.3c-3.2,16.6-8.4,33.1-17.6,47.4c-8,12.5-19.1,23.3-32.6,29.7c-21.1,10.1-46.4,11.3-68.2,2.9
		c-10.9-4.5-21.8-10.7-28.2-20.9c-7-11-8.6-24.6-7.6-37.4c0.9-11.2,6.8-22.7,17.1-27.9c7.1-4.2,16.4-0.3,21,5.9
		c9.1,12.3,11.2,27.9,17.2,41.6c2.5,5.2,4,11.7,9.6,14.5c6.1,2.9,13.3,0.2,17.4-4.8c6.4-6.8,8.5-16.3,8.9-25.4
		c1-22.7,1.1-45.4,2.2-68.1c0.9-22.3,1.3-44.6,1.2-66.9c0-97.3,0-194.7,0-292c-0.6-12.4-0.7-25.9-8.1-36.5
		c-2.5-3.6-5.7-6.9-10.1-8.1c-6.7-1.7-13.6-2.3-20.5-2.9c0-7.4,0-14.9,0-22.4C99.3,475.2,120.7,476.5,142.1,477.8z"/>
	<path class="st1" d="M504.5,1063.7c22-3.4,45.8,3.1,61.9,18.7c10.6,10.2,17.4,24.6,17.2,39.5c0.1,17.7-9.8,34.5-24,44.7
		c-27,20-68,18.3-92.7-4.7c-9.9-9.1-16.8-21.6-18.1-35c-1.4-13.2,2.6-26.8,10.7-37.4C470.3,1075.4,487.1,1066.3,504.5,1063.7z"/>
	<path class="st1" d="M135.2,1202.1c6.5-38.3,13.1-76.6,19.6-114.9c24.8,27.1,49.5,54.2,74.3,81.3c-7.9,2.8-15.9,5.7-23.8,8.5
		c13.1,30.1,29.9,58.6,50.8,83.9c17.4,21.2,37.7,40.1,60,56c28.9,20.6,61.4,36.1,95.3,46.7c32.9,10.2,67.1,16,101.4,18.1
		c43.8,1.9,87.3-9.2,127.3-26.5c54.3-23.9,103.4-59.8,141.9-105c20.4-24.1,37.7-51.1,49.6-80.4c9.5-23.4,15.5-48.4,16.7-73.7
		c15.5,0.7,31,1.5,46.5,2.2c-1.9,40.3-13.6,79.7-32.2,115.4c-28.7,55-72.2,101.5-122.4,137.7c-30.4,21.8-63.5,40-98.5,53.5
		c-34.2,13.1-70.3,21.7-106.9,23.4c-23.4,1.1-46.7-1.5-69.8-4.8c-66.1-9.8-130.7-34-184.1-74.5c-53.2-39.9-93.8-95.2-119.7-156.2
		C152.6,1195.9,143.9,1199,135.2,1202.1z"/>
</g>
<g id="_x23_3d5c99ff">
	<path class="st2" d="M284.1,273c50.1-70.8,134-116.9,220.8-119.8c42.6-1.3,85.1,9.2,123.6,27.1c52.9,24.8,99.6,64.6,128.2,115.9
		c13.1,23.6,22.1,49.5,26,76.3c-2.2,0.3-4.4,0.6-6.6,1c-5.2-35.9-20-70.1-41.5-99.3c-35.1-47.6-86.2-82.4-142-101
		c-25.4-8.3-51.9-13.3-78.7-13.5c-89.5-0.2-177,47.3-227.3,121.1c-18.5,27-31.9,57.5-39.5,89.4c-2.2-0.5-4.3-1.1-6.5-1.6
		C248.9,334.4,263.7,301.7,284.1,273z"/>
	<path class="st2" d="M358.4,292.4c35.5-39.6,86.7-64.5,139.7-68.9c37.5-3.1,75.4,5.9,108.9,22.6c29.8,14.9,56.8,36.4,76.2,63.7
		c13.8,19.4,23.4,41.9,26.9,65.5c-2.2,0.3-4.4,0.7-6.5,1c-4.6-30.2-19.6-58.2-40.3-80.4C639,270,607.8,251,574.2,239.9
		c-23.5-7.8-48.5-11.6-73.3-9.8c-48.5,3.4-95.5,24.6-130,58.9c-23.6,23.3-40.8,53.1-48.9,85.3c-2.2-0.5-4.3-1.1-6.5-1.6
		C323,342.9,337.9,315.2,358.4,292.4z"/>
	<path class="st2" d="M312.2,485.9c5.2,0,10.4,0,15.5,0c17.8,67.3,35.6,134.7,53.4,202c5,18.6,9.6,37.4,15.3,55.8
		c3.6,11.3,6.2,23.2,12.8,33.2c4.2,6.3,11.8,8.6,18.7,10.3c5.3-1.4,10.5-3.3,15.1-6.4c4.5-3.5,6.4-9.2,7.7-14.5
		c2.2-10,2.4-20.2,2.6-30.4c0-69,0-138.1,0-207.1c-0.9-5.9-4.2-11.6-9.2-15.1c-5.9-3.6-12.7-5.3-19.5-6.5c0-5.9,0-11.8,0-17.6
		c11.8,0.5,23.6,1.9,35.4,2.8c12.8-1,25.6-2.2,38.5-2.8c20.5,74.4,41,148.9,61.5,223.3c19.1-74.4,38.3-148.8,57.4-223.2
		c11.3,0.4,22.4,2.3,33.7,2.7c13.8-0.7,27.7-1.8,41.5-2.8c0,5.9,0,11.8,0,17.6c-7.8,0.2-17.5,0.6-22.3,7.8
		c-7.1,10.8-6.7,24.4-7.3,36.8c-0.1,53.7,0,107.4-0.1,161c0,16.6-0.4,33.4,2,49.9c1.2,7.3,4.2,15.2,10.8,19.3
		c4.7,2.8,10,4.7,15.4,5.7c5.7-0.8,10.6-4.4,14-8.9c5.2-6.8,9.1-14.5,11.7-22.6c5.3-15.1,9.9-30.4,14-45.8
		c20.6-74.9,41.2-149.8,61.8-224.8c5.2-0.1,10.4,0,15.5,0c17.6,66.4,35.1,132.8,52.6,199.2c5.5,20.5,10.5,41,16.8,61.2
		c2.2,7.1,4.1,14.4,7.1,21.2c2.1,4.9,4.4,10,8.5,13.4c4.8,4.2,11.4,5,17.1,7.3c0.1,5.9,0,11.9,0,17.8c-26-1.2-52.1-2.6-78.2-1.4
		c-9.3,0.4-18.6,0.9-27.9,1.4c0-5.9,0-11.8,0-17.7c6.4-0.8,12.8-2,18.8-4.6c4.2-1.9,6-6.7,6.7-10.9c1.6-11.2-1.6-22.2-4.2-33
		c-2.6-10.5-5.1-21-7.7-31.5c-23.4,0-46.8,0-70.3,0c-4.3,17.4-10.1,34.6-11.6,52.6c-0.3,8.1,2.2,17.1,9,22.2c5.1,4,11.8,5,18.1,5.2
		c0,5.9,0,11.7,0,17.6c-23.8-1.7-47.9-3-71.7-0.2c-13.6-0.5-27.3-1.5-41-1.6c-21.7-0.5-43.4,0.5-65.1,1.8c0-5.9,0-11.8,0-17.6
		c7-0.9,14.3-2.7,19.5-7.8c6.1-5.8,8.2-14.5,9-22.6c1.8-20,1-40.1,1.2-60.1c-0.1-43.8,0.1-87.7-0.1-131.5c-1.5,3.2-2.1,6.8-3,10.2
		c-20.1,76.3-40,152.8-60.3,229.1c-4.9,0.9-10.4,0.1-15.5,0.4c-21.7-79.7-43.5-159.4-65.2-239.1c-0.4-1.2-0.8-2.3-1.2-3.4
		c-0.3,52.5,0,104.9-0.1,157.4c0,13.4,0.2,26.9,2.5,40.1c1.3,7.4,4,15,9.8,20.2c4.8,4.6,11.5,6.3,18,7.2c0,5.9,0,11.8,0,17.6
		c-23.8-1.8-47.8-2.9-71.6-0.2c-20.3-0.8-40.7-1.9-61.1-1.7c-14.4,0.3-28.8,1-43.2,1.9c0-5.9,0-11.8,0-17.7c6.4-0.9,13-2,18.9-4.7
		c4.2-2,6-6.9,6.6-11.2c0.9-7.3,0-14.8-1.7-21.9c-3.4-14-6.8-28.1-10.2-42.2c-23.4,0-46.9,0-70.3,0c-4.4,17.4-10.1,34.7-11.6,52.7
		c-0.3,8.2,2.3,17.2,9.1,22.3c5.1,3.9,11.7,4.9,18,5.1c0,5.9,0,11.7,0,17.6c-10.8-0.7-21.7-1.4-32.5-1.7
		c-14.5-0.5-28.9,0.6-43.3,1.8c0-5.9,0-11.7,0-17.5c6.2-0.2,12.2-2.8,16.3-7.5c6.6-7.8,11.1-17.2,14.1-26.9
		c7.4-21,12.9-42.7,18.9-64.1C274.7,621.9,293.4,553.9,312.2,485.9 M302.7,575.7c-9.8,36.5-19.5,72.9-29.3,109.4
		c19.2,0,38.4,0,57.6,0C321.6,648.6,312.2,612.1,302.7,575.7 M753.7,685c19.2,0,38.4,0,57.6,0c-9.4-36.4-18.8-72.9-28.3-109.3
		C773.2,612.2,763.5,648.6,753.7,685z"/>
	<path class="st2" d="M208.1,856.6c232.8,0,465.5,0,698.3,0c0,47.7,0,95.4,0,143.1c-232.8,0-465.5,0-698.3,0
		C208.1,952,208.1,904.3,208.1,856.6 M228.7,877c0,1.7,0,3.5,0,5.2c1.6,0.6,3.6,0.9,4.6,2.5c1.9,3.1,1.7,6.8,1.8,10.3
		c0,21.3,0,42.7,0,64c-0.2,3.9,0.1,8-1.4,11.8c-0.8,2-3.2,2.1-4.9,2.8c0,1.8,0,3.6,0,5.5c7.8-0.9,15.6-0.5,23.4,0c0-1.8,0-3.7,0-5.5
		c-1.8-0.6-4.1-0.8-4.9-2.8c-1.6-3.7-1.4-7.8-1.6-11.8c0-8.6-0.1-17.2,0.1-25.8c1.4,0.9,3,1.7,3.7,3.4c2.4,4.6,3.8,9.7,5.4,14.6
		c2.9,9.2,5.9,18.4,8.6,27.7c6.2-0.4,12.4,0.3,18.6-0.2c6.1-0.6,12.2,0.5,18.3,0.4c0-1.9,0-3.7,0-5.5c-1.9-0.6-4.4-0.6-5.3-2.6
		c-1.4-3.1-1.3-6.6-1.4-9.9c-0.1-10,0-20.1,0-30.1c2.4,0.2,5.2,0.6,6.6,2.9c2.5,4.2,2.3,9.3,2.8,14c0.7,0,2.1,0,2.8,0
		c-0.3-13.6-0.1-27.1,0-40.7c-0.7,0-2,0-2.6,0c-0.6,4.9-0.6,10.3-3.4,14.6c-1.3,2.1-3.9,2.4-6.2,2.5c-0.1-11.7,0.1-23.5-0.1-35.2
		c0-1.9,0.1-4.7,2.5-4.9c3.9-0.3,8.4,0.7,10.8,4.1c3.5,4.4,4.1,10.1,4.8,15.5c0.6,0,2,0,2.6,0c-0.1-8.9-0.3-17.9-0.5-26.8
		c-12.4,0-24.8,1-37.2,0c0,1.8,0,3.6,0,5.4c2.5,0.5,4.9,2,5.4,4.7c1.6,6.9,0.8,14.1,1,21.1c0,17,0,34,0,51c-0.1,3.9,0.1,8-1.6,11.7
		c-0.8,1.7-2.6,2.5-4.4,2.7c-3.8-2.4-5-7.1-6.4-11.1c-3.5-11.5-7.9-22.7-11.8-34.1c7.8-4.3,9.9-14,10.5-22.2
		c0.3-8.6-0.1-18.5-6.3-25.2c-5.2-4.7-12.8-4.1-19.3-3.5C238.9,877.9,233.8,877.3,228.7,877 M640.7,906.7c-7,6-9.7,15.4-10.1,24.3
		c-0.3,8.7,1.7,18.1,8,24.4c7.5,7.7,21.2,7.6,28.2-0.7c0.4,1.6,0.8,3.2,1.1,4.9c6.2,0.8,12.4,0,18.5,0.6c0-0.7,0-2.2,0-2.9
		c-2.3-0.4-5.3-1.3-5.5-4.2c-0.1-3.7,1.4-7.1,2.4-10.6c4.8,0,9.6,0,14.5,0c0.9,3.8,2.7,7.6,2.5,11.6c-0.2,2.6-3.4,2.3-5.3,3
		c0,0.8,0,2.3,0,3.1c7.3-0.4,14.6-0.3,21.9,0c0-0.8,0-2.3,0-3.1c-3.1-0.6-5.4-2.8-6.1-5.8c-5.3-16.2-9.9-32.6-15-48.9
		c-1.1,0-2.2,0-3.2,0c-4.7,14.8-9.3,29.7-14,44.5c-1.4,4.3-3,9.5-8,10.9c0-5.8,0-11.6,0-17.3c-0.6,0-1.9,0-2.5,0
		c-0.8,4.3-1.7,8.9-4.6,12.3c-2.4,3-6.6,4.4-10.4,3.9c-4.7-0.9-7.6-5.4-9-9.7c-2.6-8.1-2.7-16.8-1.3-25.2c1-5,2.8-10.6,7.3-13.6
		c3.8-2.6,9.2-1.5,12.3,1.7c3,2.9,4.1,7.1,5,11.1c0.7,0,2.1,0,2.8-0.1c-0.2-6-0.4-12-0.7-18c-0.9,0-1.8,0-2.8,0
		c-0.3,1.6-0.7,3.1-1,4.8C659.3,900.6,647.7,900.6,640.7,906.7 M803.5,902.8c-8.6,1.9-15.1,9.1-17.5,17.4
		c-2.6,9.3-2.2,19.8,2.5,28.4c3.6,6.8,10.7,11.7,18.5,12.3c7.9,0.9,15.9-3.1,20.3-9.6c5.8-8.1,6.6-18.8,4.8-28.4
		c-1.2-6.3-4.7-12.3-9.9-16.2C817,902.6,809.9,901.3,803.5,902.8 M333.9,903c0,0.7,0,2.1,0,2.9c2.8,0.2,6,1.8,5.9,5.1
		c0.4,10.7,0,21.4,0.2,32.1c-0.1,3.8,0.3,7.6-0.7,11.3c-0.6,2.4-3.5,2.2-5.3,2.8c0,0.8,0,2.3,0,3c7.4-0.5,14.9-0.3,22.3,0
		c0-0.8,0-2.2,0-3c-1.5-0.5-3.5-0.3-4.6-1.6c-1.5-2.2-1.4-4.9-1.5-7.5c0-11.3,0-22.7,0-34.1c0.1-2.2-0.1-4.7,1.6-6.3
		c1.2-1.2,3-1.3,4.5-1.8c0-0.7,0-2.2,0-3C348.8,903.2,341.3,903.3,333.9,903 M358.5,906.1c1.7,0.5,4,0.5,5.1,2.3
		c1.3,2.3,0.9,5.1,1,7.7c-0.2,12,0.2,24-0.2,35.9c0.1,3.3-2.9,5.1-5.8,5.2c0,0.8,0,2.2,0,3c5.8,0,11.6-0.6,17.4-0.2
		c4.9,0.2,10.1,0.7,14.6-1.5c6.1-3,9.7-9.5,11.1-15.9c2.1-9.6,1.7-20.2-3.4-28.8c-3.7-6.4-10.8-10.5-18.2-10.6
		c-7.1-0.2-14.3,0.1-21.4-0.1C358.5,903.9,358.5,905,358.5,906.1 M406.7,902.9c0,0.7,0,2.2,0,3c1.5,0.5,3.4,0.5,4.5,1.8
		c1.6,2,1.4,4.8,1.5,7.3c0,11,0,22,0,33c-0.1,2.2,0.1,4.6-1,6.6c-0.9,1.9-3.3,1.9-5.1,2.5c0,0.8,0,2.2,0,3c12.7-0.6,25.4-0.1,38.1,0
		c-0.5-5.5-0.2-11.1,0-16.6c-0.7,0-2,0-2.6,0c-1.1,4.4-2,10.2-6.9,11.9c-4.1,1.4-10.4,1.3-11.9-3.6c-1.2-6.3-0.4-12.7-0.6-19
		c1.8,0.3,3.8,0.2,5.5,1.1c2.6,2,2.6,5.4,3.5,8.2c0.6,0.1,1.9,0.2,2.5,0.3c-0.1-7.6-0.2-15.2,0-22.8c-0.9,0-1.7,0-2.6,0
		c-0.4,2.5-0.4,5.3-2.2,7.2c-1.7,1.9-4.4,1.9-6.8,2.4c0.2-7.2-0.5-14.5,0.4-21.7c4.2-0.5,8.9-0.7,12.5,2c2.7,2.1,2.9,5.8,3.9,8.8
		c0.7,0.1,2,0.2,2.6,0.3c-0.1-5.2-0.4-10.3-0.5-15.5C430.1,902.8,418.4,903.5,406.7,902.9 M447,902.9c0,0.8,0,2.3,0,3
		c1.8,0.7,3.9,1.4,4.9,3.2c2.1,2.5,1.4,5.9,1.5,8.9c-0.2,11,0.2,22-0.2,33c0.1,3.3-2.5,5.5-5.5,6.1c0,0.8,0,2.3,0,3
		c5.1-0.4,10.2-0.4,15.4,0c0-0.7,0-2.2-0.1-2.9c-4.4-0.7-6.2-5.2-6.1-9.2c-0.2-10.4,0-20.8-0.1-31.2c9.9,14.8,19.7,29.6,29.6,44.5
		c0.8,0,2.5,0,3.3,0.1c0.1-15.1,0-30.2,0-45.3c0.1-2.6,0-5.5,1.5-7.8c0.9-1.4,2.8-1.7,4.2-2.3c0-0.8,0-2.2,0-3
		c-5.1,0.5-10.2,0.5-15.2,0c0,0.8,0,2.2,0,3c3.9,0.6,6,4.4,6,8.1c0.3,9.4,0,18.8,0.1,28.2c-8.5-13.1-17.1-26.1-25.6-39.2
		C456.1,903.3,451.5,903.5,447,902.9 M498,902.9c-0.1,5.5-0.3,11.1-0.4,16.6c0.7-0.1,2-0.2,2.7-0.3c1-3.2,1.2-6.9,3.4-9.5
		c2.1-2.5,5.8-2.7,8.9-2.2c1.6,0.2,1.5,2.2,1.6,3.4c0,12.3,0,24.7,0,37c-0.1,2.3,0.1,4.8-1,6.9c-1,2-3.7,1.7-5.6,2.2
		c0,0.8,0,2.3,0,3c7.7-0.4,15.5-0.4,23.2,0c0-0.8,0-2.2,0-3c-1.9-0.5-4.5-0.4-5.5-2.4c-1.6-3.6-0.9-7.8-1-11.6
		c0.2-11.9-0.4-23.8,0.3-35.7c3.3-0.2,7,0.3,9.4,2.8c2.5,2.4,3,5.9,3.9,9.1c0.6,0.1,2,0.2,2.6,0.3c-0.1-5.5-0.2-11.1-0.4-16.6
		C526,902.9,512,902.9,498,902.9 M542.4,903c0,0.7,0,2.1,0,2.8c2.4,0.3,5.5,1.2,5.8,4.1c0.7,8.3,0.1,16.6,0.3,24.9
		c-0.2,6.3,0.5,12.7-0.6,18.9c-0.4,2.6-3.4,2.7-5.4,3.2c0,0.7-0.1,2.2-0.1,3c7.5-0.3,14.9-0.3,22.4,0.1c0-0.8,0-2.2,0-3
		c-3,0-5.9-1.8-5.8-5.1c-0.4-13.3-0.1-26.7-0.2-40c-0.4-3.6,2.7-6,6-6.1c0-0.8,0-2.2,0-3C557.3,903.2,549.8,903.3,542.4,903
		 M567,902.9c0,0.8,0,2.2,0,3c2.2,0.4,4.9,1,5.4,3.5c1.1,5.8,0.4,11.7,0.6,17.6c-0.2,8.7,0.4,17.4-0.3,26c-0.3,2.9-3.2,3.8-5.7,4.1
		c0,0.8,0,2.2,0,3c7.5-0.5,15-0.1,22.5,0c0-0.8,0-2.2,0-3c-2.2-0.4-5.6-0.5-5.9-3.4c-1-6.8-0.3-13.7-0.5-20.5c2.3,0.2,5,0.2,6.8,2
		c1.8,2,1.8,4.9,2.3,7.5c0.6,0,1.9,0,2.5,0c-0.2-7.6-0.1-15.2,0-22.8c-0.6,0-1.8,0-2.5,0c-0.7,2.8-0.9,6-3.2,8.1
		c-1.7,1.4-4,1.3-6,1.5c0.1-6.8-0.2-13.7,0.1-20.5c0.1-0.3,0.4-1,0.5-1.4c3.4-1.2,7.5-0.5,10.8,0.9c3.6,1.7,4.9,5.7,5.9,9.2
		c0.6,0.1,1.8,0.3,2.4,0.4c-0.1-5.1-0.3-10.1-0.4-15.2C590.5,902.9,578.8,903.5,567,902.9 M603.8,903c0,0.7,0,2.1,0,2.8
		c2.7,0.3,5.8,1.5,5.9,4.7c0.4,11.1,0,22.3,0.2,33.4c-0.1,3.6,0.4,7.4-0.9,10.8c-0.9,1.9-3.4,1.7-5.1,2.3c0,0.8,0,2.3,0,3
		c7.4-0.5,14.9-0.3,22.3,0c0-0.8,0-2.2,0-3c-3.5,0.1-6.2-2.5-5.9-6c-0.2-13.1-0.2-26.2,0-39.2c-0.4-3.5,2.7-5.8,6-6c0-0.8,0-2.2,0-3
		C618.7,903.2,611.2,903.3,603.8,903 M713.2,902.9c-0.1,5.5-0.3,11-0.4,16.5c0.7,0,2.1,0,2.8,0c0.7-3.1,1-6.3,2.8-9
		c2.1-3.1,6.4-3.6,9.8-2.8c1.5,0.8,0.9,2.9,1.1,4.3c-0.2,13.3,0.2,26.7-0.2,40c0.2,3.7-3.4,5.1-6.5,5.1c0,0.8,0,2.3,0,3
		c7.8-0.4,15.5-0.4,23.3,0c0-0.8,0-2.3,0-3c-2.2-0.4-5.1-0.6-5.9-3.2c-1.3-5.5-0.4-11.3-0.7-16.9c0.2-9.7-0.4-19.5,0.3-29.2
		c3.3-1.3,7.4,0.2,9.7,2.8c2.3,2.3,2.7,5.7,3.5,8.7c0.6,0.1,2,0.2,2.6,0.3c-0.1-5.5-0.3-11.1-0.4-16.6
		C741.2,902.9,727.2,902.9,713.2,902.9 M757.7,903c0,0.7,0,2.1,0,2.8c1.6,0.5,3.5,0.5,4.7,1.8c1.5,1.7,1.3,4.2,1.4,6.3
		c0,11,0,22,0,33c-0.1,2.6,0.1,5.3-0.9,7.7c-0.9,1.9-3.4,1.7-5.1,2.3c0,0.8,0,2.3,0,3c7.4-0.5,14.9-0.3,22.3,0c0-0.8,0-2.3,0-3
		c-1.6-0.5-3.9-0.3-4.9-2c-1.5-2.8-1.1-6-1.2-9.1c0.2-11.7-0.2-23.4,0.2-35c0-3.2,3.1-4.8,5.9-5.1c0-0.8,0-2.2,0-3
		C772.5,903.2,765.1,903.3,757.7,903 M836.8,902.9c0,0.8,0,2.2,0,3c3.6,0.9,6.7,4.2,6.4,8.1c-0.2,12.3,0.2,24.7-0.2,37
		c0.1,3.3-2.5,5.5-5.5,6.1c0,0.8,0,2.3,0,3c5.1-0.4,10.3-0.4,15.4,0c0-0.7,0-2.2,0-2.9c-4.8-0.8-6.4-6-6.2-10.2
		c-0.1-10.1,0-20.1,0-30.2c9.9,14.8,19.7,29.7,29.6,44.5c0.8,0,2.4,0,3.2,0c0.1-16.1-0.2-32.2,0.2-48.3c-0.2-3.5,2-6.6,5.5-7.1
		c0-0.8,0-2.3,0-3c-5.1,0.5-10.2,0.5-15.2,0c0,0.8,0,2.2,0,3c4,0.6,6.1,4.4,6,8.2c0.3,9.4,0,18.8,0.1,28.1
		c-8.1-12.4-16.2-24.8-24.2-37.2c-0.7-0.9-1.3-2.5-2.8-2C845,903.3,840.9,903.4,836.8,902.9z"/>
	<path class="st2" d="M246.5,884.5c3.2-1.5,7.2,0.2,8.7,3.3c3,5.9,3,12.7,3,19.1c-0.3,5.6-0.4,11.7-3.7,16.5c-2,2.8-5.7,3-8.8,3
		c0-12.5,0-25,0-37.5C245.8,887.5,245.5,885.8,246.5,884.5z"/>
	<path class="st2" d="M805.4,906.5c3.8-1.2,8.4,0,10.7,3.3c4.5,6,5,13.9,5.4,21.1c0,7.4-0.3,15.5-4.7,21.8c-3,4.7-10.5,6-14.6,2
		c-4-3.8-5.2-9.5-6-14.7c-0.9-7.9-1-16.1,1.2-23.8C798.7,912.3,801,907.8,805.4,906.5z"/>
	<path class="st2" d="M374.8,907.1c4.3-0.4,9.4,0.1,12.2,3.9c4,5.8,4.3,13.3,4.6,20.1c0,7.1,0,14.6-3.5,21
		c-2.3,4.1-9.6,5.7-12.3,1.2c-1.5-3.9-1.1-8.2-1.2-12.2C374.8,929.7,374.3,918.4,374.8,907.1z"/>
	<path class="st2" d="M684.5,938.2c2-6.6,4-13.1,6-19.7c1.9,6.5,3.9,13.1,5.8,19.7C692.5,938.2,688.5,938.2,684.5,938.2z"/>
	<path class="st2" d="M315.4,1096.1c2.2-0.4,4.4-0.7,6.6-1c5.1,33.6,23,64.2,47.4,87.6c28.5,27.5,65,46.4,103.7,54.8
		c33.3,7.5,68.4,4.9,100.7-5.8c35.8-11.8,68.5-33.2,92.7-62.2c17.5-20.9,30.3-45.8,36.9-72.3c2.1,0.5,4.3,1,6.4,1.5
		c-8.1,33.2-25.9,63.8-50,88c-38.2,38.2-91.6,61-145.7,61.8c-35,0.3-69.7-9.5-100.6-25.8c-29.9-15.9-56.6-38.5-75.1-67
		C326.7,1137.6,318.6,1117.3,315.4,1096.1z"/>
	<path class="st2" d="M242.6,1098.9c2.2-0.3,4.4-0.7,6.6-1c5.5,37.8,21.6,73.8,45,103.9c37.2,48,90.7,82.6,148.8,99.5
		c25,7.2,51,11.1,77.1,10.2c69.6-2.2,137.3-33,186.4-82.2c35.2-35,60.3-79.9,71.7-128.2c2.2,0.5,4.3,1,6.5,1.6
		c-8.3,34.7-23.3,67.8-44.1,96.8c-36.4,50.8-90.1,88.8-149.9,106.9c-38.2,11.7-79.1,15.2-118.6,8.3c-34.8-5.9-68.3-18.4-98.9-36
		c-29.2-16.9-55.8-38.5-77.5-64.4C268,1181.6,248.7,1141.5,242.6,1098.9z"/>
</g>
</svg>
